<svg width="16" height="16" viewBox="0 0 16 16" fill="none" xmlns="http://www.w3.org/2000/svg">
<g clip-path="url(#clip0)">
<path d="M15.8627 13.2111L13.1593 10.5077L14.4851 9.18187C14.6 9.06699 14.6472 8.90083 14.6099 8.74271C14.5726 8.58458 14.4561 8.45708 14.3019 8.40571L6.34699 5.75405C6.17858 5.6979 5.99283 5.74174 5.8673 5.8673C5.74174 5.99287 5.6979 6.17855 5.75405 6.34699L8.40571 14.302C8.45712 14.4561 8.58462 14.5726 8.74271 14.6099C8.9008 14.6473 9.06699 14.6001 9.18187 14.4852L10.5077 13.1594L13.2111 15.8627C13.3026 15.9542 13.4226 16 13.5425 16C13.6625 16 13.7825 15.9543 13.874 15.8627L15.8627 13.874C16.0458 13.6909 16.0458 13.3941 15.8627 13.2111ZM13.5425 14.8683L10.8391 12.165C10.6561 11.9819 10.3592 11.9819 10.1762 12.165L9.05524 13.286L6.9399 6.93993L13.2859 9.05527L12.165 10.1762C11.9821 10.3591 11.9819 10.6561 12.165 10.8391L14.8683 13.5425L13.5425 14.8683Z" fill="white"/>
<path d="M6.09375 3.75C6.35263 3.75 6.5625 3.54012 6.5625 3.28125V0.46875C6.5625 0.209875 6.35263 0 6.09375 0C5.83487 0 5.625 0.209875 5.625 0.46875V3.28125C5.625 3.54012 5.83487 3.75 6.09375 3.75Z" fill="white"/>
<path d="M2.44772 1.78482C2.26469 1.60176 1.96788 1.60176 1.78482 1.78482C1.60176 1.96788 1.60176 2.26466 1.78482 2.44773L3.77356 4.43648C3.95659 4.61954 4.25344 4.61954 4.43647 4.43648C4.61953 4.25341 4.61953 3.95663 4.43647 3.77357L2.44772 1.78482Z" fill="white"/>
<path d="M3.77356 7.75101L1.78482 9.73976C1.60176 9.92282 1.60176 10.2196 1.78482 10.4027C1.96785 10.5857 2.26469 10.5857 2.44772 10.4027L4.43647 8.41391C4.61953 8.23085 4.61953 7.93407 4.43647 7.75101C4.25341 7.56794 3.95659 7.56794 3.77356 7.75101Z" fill="white"/>
<path d="M8.41391 4.43648L10.4027 2.44773C10.5857 2.26466 10.5857 1.96788 10.4027 1.78482C10.2196 1.60176 9.92282 1.60176 9.73976 1.78482L7.75101 3.77357C7.56794 3.95663 7.56794 4.25341 7.75101 4.43648C7.93404 4.61954 8.23088 4.61954 8.41391 4.43648Z" fill="white"/>
<path d="M3.75 6.09375C3.75 5.83487 3.54012 5.625 3.28125 5.625H0.46875C0.209875 5.625 0 5.83487 0 6.09375C0 6.35263 0.209875 6.5625 0.46875 6.5625H3.28125C3.54012 6.5625 3.75 6.35263 3.75 6.09375Z" fill="white"/>
</g>
<defs>
<clipPath id="clip0">
<rect width="16" height="16" fill="white"/>
</clipPath>
</defs>
</svg>
