<svg width="100" height="100" viewBox="0 0 100 100" fill="none" xmlns="http://www.w3.org/2000/svg">
<g clip-path="url(#clip0)">
<path d="M97.3906 19.3951L80.6041 2.60856C78.9225 0.927012 76.6869 0.000976562 74.3092 0.000976562C69.3894 0.000976562 65.4069 3.98287 65.4069 8.90326C65.4069 10.6192 65.8914 12.2596 66.7915 13.6723C62.0377 14.8146 57.2914 17.5284 53.3265 21.4933C50.0904 24.7292 47.9135 28.2428 46.5178 32.4985L36.5401 42.476L40.7367 46.6727L0 87.4092V99.999H12.5898L53.3263 59.2625L57.5228 63.4591L67.5003 53.4816C71.7562 52.0857 75.2696 49.909 78.5057 46.6727C82.4706 42.7082 85.1846 37.9621 86.3269 33.2081C89.7406 35.3826 94.3615 35.0141 97.3906 31.9847C100.869 28.5061 100.87 22.8743 97.3906 19.3951ZM10.1316 94.0641H5.93486V89.8674L44.9332 50.8692L49.1297 55.066L10.1316 94.0641ZM57.5228 55.066V55.0658L44.9332 42.476V42.4762V42.476L49.1299 38.2796L61.7196 50.8692L57.5228 55.066ZM74.3092 42.476C71.9983 44.787 69.6026 46.3653 66.709 47.4658L52.5334 33.2902C53.6337 30.3966 55.2122 28.0008 57.523 25.6898C61.7308 21.4822 67.1122 18.9856 71.8163 19.0002L80.9992 28.1831C81.0134 32.8878 78.517 38.2686 74.3092 42.476ZM93.1939 27.788C92.0364 28.9451 90.1545 28.9449 88.9972 27.788L72.2108 11.0018C71.0537 9.84453 71.0537 7.962 72.2108 6.8049C73.3677 5.64819 75.2504 5.64799 76.4075 6.8049L93.1939 23.5916C94.3538 24.7511 94.3538 26.6283 93.1939 27.788Z" fill="black"/>
</g>
<defs>
<clipPath id="clip0">
<rect width="100" height="100" fill="white"/>
</clipPath>
</defs>
</svg>
