<svg width="1920" height="581" viewBox="0 0 1920 581" fill="none" xmlns="http://www.w3.org/2000/svg">
<path fill-rule="evenodd" clip-rule="evenodd" d="M0 0L80.4167 38.8C160.833 77.6 321.667 155.2 482.5 203.7C643.333 252.2 804.167 271.6 965 242.5C1125.83 213.4 1286.67 135.8 1447.5 106.7C1608.33 77.6 1769.17 97 1849.58 106.7L1930 116.4V582H1849.58C1769.17 582 1608.33 582 1447.5 582C1286.67 582 1125.83 582 965 582C804.167 582 643.333 582 482.5 582C321.667 582 160.833 582 80.4167 582H0V0Z" fill="#FFEF85"/>
<path fill-rule="evenodd" clip-rule="evenodd" d="M1920 231.739L1856 251.087C1792 270.435 1664 309.13 1536 328.478C1408 347.826 1280 347.826 1152 318.804C1024 289.783 896 231.739 768 193.043C640 154.348 512 135 384 135C256 135 128 154.348 64 164.022L-2.86102e-05 173.696V580H64C128 580 256 580 384 580C512 580 640 580 768 580C896 580 1024 580 1152 580C1280 580 1408 580 1536 580C1664 580 1792 580 1856 580H1920V231.739Z" fill="#FFDD00"/>
</svg>
