<svg width="16" height="16" viewBox="0 0 16 16" fill="none" xmlns="http://www.w3.org/2000/svg">
<path d="M9.66017 4.96031C9.51938 4.86047 9.32432 4.89353 9.22444 5.03431L9.21838 5.04285C9.1185 5.18359 9.15163 5.37866 9.29238 5.47853C9.34729 5.51747 9.41041 5.53622 9.47298 5.53622C9.57082 5.53622 9.66717 5.49041 9.72811 5.40453L9.73417 5.396C9.83405 5.25525 9.80092 5.06019 9.66017 4.96031Z" fill="white"/>
<path d="M8.94822 5.84589C8.83878 5.71242 8.64188 5.69302 8.50844 5.80248C8.07428 6.15861 7.58094 6.41211 7.04209 6.55598C6.87534 6.60051 6.77625 6.77176 6.82078 6.93851C6.85809 7.07826 6.9844 7.17048 7.1225 7.17048C7.14918 7.17048 7.17631 7.16704 7.20331 7.15979C7.82884 6.99276 8.40128 6.69867 8.90478 6.28567C9.03825 6.17623 9.05769 5.9793 8.94822 5.84589Z" fill="white"/>
<path d="M15.0625 7.07719C14.5456 7.07719 14.125 7.49775 14.125 8.01466V8.17094C14.125 9.48147 13.1708 10.5726 11.9208 10.7879C12.084 10.5471 12.1795 10.2568 12.1795 9.94466V9.72759C12.1795 8.89697 11.5037 8.22122 10.6731 8.22122C9.8425 8.22122 9.16675 8.89697 9.16675 9.72759V9.94466C9.16675 10.2489 9.25769 10.5322 9.41341 10.7692C8.2125 10.5147 7.3085 9.44656 7.3085 8.17094V8.01466C7.3085 7.49775 6.88794 7.07719 6.371 7.07719C5.85406 7.07719 5.4335 7.49775 5.4335 8.01466V8.17094C5.4335 8.80522 5.56256 9.41863 5.81156 9.98534H3.74228H3.68522V6.83822C3.68522 6.69872 3.59278 6.57609 3.45866 6.53778C1.79025 6.06063 0.625 4.51591 0.625 2.78125V2.625C0.625 2.45269 0.765188 2.3125 0.9375 2.3125C1.10981 2.3125 1.25 2.45269 1.25 2.625V2.78125C1.25 4.59053 2.72197 6.0625 4.53125 6.0625H6.03522C7.8445 6.0625 9.31647 4.59053 9.31647 2.78125V2.625C9.31647 2.45269 9.45666 2.3125 9.62897 2.3125C9.80128 2.3125 9.94147 2.45269 9.94147 2.625V2.78125C9.94147 3.26159 9.85494 3.73081 9.68425 4.17578C9.62244 4.33691 9.70297 4.51766 9.86413 4.57947C10.0252 4.64131 10.206 4.56072 10.2678 4.39959C10.466 3.88291 10.5665 3.33841 10.5665 2.78125V2.625C10.5665 2.10806 10.1459 1.6875 9.62897 1.6875C9.11203 1.6875 8.69147 2.10806 8.69147 2.625V2.78125C8.69147 4.09175 7.73725 5.18291 6.48728 5.39822C6.65053 5.15744 6.746 4.86719 6.746 4.55503V4.33797C6.746 3.50734 6.07022 2.83156 5.23959 2.83156C4.40897 2.83156 3.73322 3.50734 3.73322 4.33797V4.55503C3.73322 4.85925 3.82416 5.1425 3.97988 5.37956C2.77897 5.125 1.875 4.05687 1.875 2.78125V2.625C1.875 2.10806 1.45444 1.6875 0.9375 1.6875C0.420563 1.6875 0 2.10806 0 2.625V2.78125C0 3.78456 0.322563 4.73588 0.932781 5.53228C1.47478 6.23962 2.22369 6.77838 3.06025 7.06722V10.2978C3.06025 10.4704 3.20016 10.6103 3.37275 10.6103H3.42981V15.6875C3.42981 15.8601 3.56972 16 3.74231 16C3.91491 16 4.05481 15.8601 4.05481 15.6875V10.6103H6.14731C6.21563 10.7165 6.28859 10.8205 6.36631 10.9219C6.387 10.9489 6.40853 10.9752 6.42981 11.0017V15.6875C6.42981 15.8601 6.56972 16 6.74231 16C6.91491 16 7.05481 15.8601 7.05481 15.6875V11.6403C7.48059 11.9972 7.97 12.276 8.49378 12.4569V15.6875C8.49378 15.8601 8.63369 16 8.80628 16C8.97888 16 9.11878 15.8601 9.11878 15.6875V12.2279C9.11878 12.0884 9.02634 11.9658 8.89222 11.9274C7.22378 11.4503 6.05853 9.90559 6.05853 8.17094V8.01466C6.05853 7.84234 6.19872 7.70219 6.37103 7.70219C6.54334 7.70219 6.68353 7.84234 6.68353 8.01466V8.17094C6.68353 9.98022 8.1555 11.4522 9.96478 11.4522H11.4688C13.278 11.4522 14.75 9.98022 14.75 8.17094V8.01466C14.75 7.84234 14.8902 7.70219 15.0625 7.70219C15.2348 7.70219 15.375 7.84234 15.375 8.01466V8.17094C15.375 9.93762 14.1827 11.4898 12.4757 11.9457C12.3389 11.9822 12.2438 12.106 12.2438 12.2476V14.5104C12.2438 14.683 12.3837 14.8229 12.5563 14.8229C12.7289 14.8229 12.8688 14.683 12.8688 14.5104V12.4809C14.7242 11.8782 16 10.1393 16 8.17094V8.01466C16 7.49775 15.5794 7.07719 15.0625 7.07719ZM4.35822 4.33794C4.35822 3.85191 4.75359 3.45653 5.23959 3.45653C5.72559 3.45653 6.121 3.85191 6.121 4.33794V4.555C6.121 5.041 5.72563 5.43638 5.23959 5.43638C4.75359 5.43638 4.35822 5.041 4.35822 4.555V4.33794ZM11.5545 9.94466C11.5545 10.4307 11.1592 10.826 10.6731 10.826C10.1871 10.826 9.79175 10.4307 9.79175 9.94466V9.72759C9.79175 9.24159 10.1871 8.84622 10.6731 8.84622C11.1591 8.84622 11.5545 9.24159 11.5545 9.72759V9.94466Z" fill="white"/>
<path d="M12.7772 15.4666C12.7191 15.4084 12.6385 15.375 12.5563 15.375C12.4741 15.375 12.3935 15.4084 12.3353 15.4666C12.2772 15.5247 12.2438 15.6053 12.2438 15.6875C12.2438 15.7697 12.2772 15.8503 12.3353 15.9084C12.3935 15.9665 12.4741 16 12.5563 16C12.6385 16 12.7191 15.9666 12.7772 15.9084C12.8353 15.8503 12.8688 15.7697 12.8688 15.6875C12.8688 15.6053 12.8353 15.5247 12.7772 15.4666Z" fill="white"/>
<path d="M5.23962 11.6875C5.06703 11.6875 4.92712 11.8274 4.92712 12V15.6875C4.92712 15.8601 5.06703 16 5.23962 16C5.41222 16 5.55212 15.8601 5.55212 15.6875V12C5.55212 11.8274 5.41222 11.6875 5.23962 11.6875Z" fill="white"/>
<path d="M14.5625 2.5625C14.3899 2.5625 14.25 2.70244 14.25 2.875V3.26344C14.25 3.436 14.3899 3.57594 14.5625 3.57594C14.7351 3.57594 14.875 3.436 14.875 3.26344V2.875C14.875 2.70244 14.7351 2.5625 14.5625 2.5625Z" fill="white"/>
<path d="M14.5625 4.42407C14.3899 4.42407 14.25 4.56401 14.25 4.73657V5.12501C14.25 5.29757 14.3899 5.43751 14.5625 5.43751C14.7351 5.43751 14.875 5.29757 14.875 5.12501V4.73657C14.875 4.56401 14.7351 4.42407 14.5625 4.42407Z" fill="white"/>
<path d="M15.6875 3.6875H15.2991C15.1265 3.6875 14.9866 3.82744 14.9866 4C14.9866 4.17256 15.1265 4.3125 15.2991 4.3125H15.6875C15.8601 4.3125 16 4.17256 16 4C16 3.82744 15.8601 3.6875 15.6875 3.6875Z" fill="white"/>
<path d="M13.8259 3.6875H13.4375C13.2649 3.6875 13.125 3.82744 13.125 4C13.125 4.17256 13.2649 4.3125 13.4375 4.3125H13.8259C13.9985 4.3125 14.1384 4.17256 14.1384 4C14.1384 3.82744 13.9985 3.6875 13.8259 3.6875Z" fill="white"/>
<path d="M6.87103 0C6.69844 0 6.55853 0.139938 6.55853 0.3125V0.700938C6.55853 0.8735 6.69844 1.01344 6.87103 1.01344C7.04363 1.01344 7.18353 0.8735 7.18353 0.700938V0.3125C7.18353 0.139938 7.04363 0 6.87103 0Z" fill="white"/>
<path d="M6.87103 1.86157C6.69844 1.86157 6.55853 2.00151 6.55853 2.17407V2.56251C6.55853 2.73507 6.69844 2.87501 6.87103 2.87501C7.04363 2.87501 7.18353 2.73507 7.18353 2.56251V2.17407C7.18353 2.00151 7.04363 1.86157 6.87103 1.86157Z" fill="white"/>
<path d="M7.99604 1.125H7.6076C7.43501 1.125 7.2951 1.26494 7.2951 1.4375C7.2951 1.61006 7.43501 1.75 7.6076 1.75H7.99604C8.16864 1.75 8.30854 1.61006 8.30854 1.4375C8.30854 1.26494 8.16864 1.125 7.99604 1.125Z" fill="white"/>
<path d="M6.13447 1.125H5.74603C5.57344 1.125 5.43353 1.26494 5.43353 1.4375C5.43353 1.61006 5.57344 1.75 5.74603 1.75H6.13447C6.30706 1.75 6.44697 1.61006 6.44697 1.4375C6.44697 1.26494 6.30706 1.125 6.13447 1.125Z" fill="white"/>
</svg>
