<svg width="16" height="15" viewBox="0 0 16 15" fill="none" xmlns="http://www.w3.org/2000/svg">
<path d="M15.0625 6.07719C14.5456 6.07719 14.125 6.49775 14.125 7.01466V7.17094C14.125 8.48147 13.1708 9.57263 11.9208 9.78791C12.084 9.54713 12.1795 9.25684 12.1795 8.94466V8.72759C12.1795 7.89697 11.5037 7.22122 10.6731 7.22122C9.8425 7.22122 9.16675 7.89697 9.16675 8.72759V8.94466C9.16675 9.24891 9.25769 9.53216 9.41341 9.76925C8.2125 9.51469 7.3085 8.44656 7.3085 7.17094V7.01466C7.3085 6.49775 6.88794 6.07719 6.371 6.07719C5.85406 6.07719 5.4335 6.49775 5.4335 7.01466V7.17094C5.4335 7.80522 5.56256 8.41863 5.81156 8.98534H3.74228H3.68522V5.83822C3.68522 5.69872 3.59278 5.57609 3.45866 5.53778C1.79025 5.06063 0.625 3.51591 0.625 1.78125V1.625C0.625 1.45269 0.765188 1.3125 0.9375 1.3125C1.10981 1.3125 1.25 1.45269 1.25 1.625V1.78125C1.25 3.59053 2.72197 5.0625 4.53125 5.0625H6.03522C7.8445 5.0625 9.31647 3.59053 9.31647 1.78125V1.625C9.31647 1.45269 9.45666 1.3125 9.62897 1.3125C9.80128 1.3125 9.94147 1.45269 9.94147 1.625V1.78125C9.94147 2.26159 9.85494 2.73081 9.68425 3.17578C9.62244 3.33691 9.70297 3.51766 9.86413 3.57947C10.0252 3.64131 10.206 3.56072 10.2678 3.39959C10.466 2.88291 10.5665 2.33841 10.5665 1.78125V1.625C10.5665 1.10806 10.1459 0.6875 9.62897 0.6875C9.11203 0.6875 8.69147 1.10806 8.69147 1.625V1.78125C8.69147 3.09175 7.73725 4.18291 6.48728 4.39822C6.65053 4.15744 6.746 3.86719 6.746 3.55503V3.33797C6.746 2.50734 6.07022 1.83156 5.23959 1.83156C4.40897 1.83156 3.73322 2.50734 3.73322 3.33797V3.55503C3.73322 3.85925 3.82416 4.1425 3.97988 4.37956C2.77897 4.125 1.875 3.05687 1.875 1.78125V1.625C1.875 1.10806 1.45444 0.6875 0.9375 0.6875C0.420563 0.6875 0 1.10806 0 1.625V1.78125C0 2.78456 0.322563 3.73588 0.932781 4.53228C1.47478 5.23962 2.22369 5.77838 3.06025 6.06722V9.29781C3.06025 9.47038 3.20016 9.61031 3.37275 9.61031H3.42981V14.6875C3.42981 14.8601 3.56972 15 3.74231 15C3.91491 15 4.05481 14.8601 4.05481 14.6875V9.61031H6.14731C6.21563 9.71653 6.28859 9.8205 6.36631 9.92194C6.387 9.94894 6.40853 9.97519 6.42981 10.0017V14.6875C6.42981 14.8601 6.56972 15 6.74231 15C6.91491 15 7.05481 14.8601 7.05481 14.6875V10.6403C7.48059 10.9972 7.97 11.276 8.49378 11.4569V14.6875C8.49378 14.8601 8.63369 15 8.80628 15C8.97888 15 9.11878 14.8601 9.11878 14.6875V11.2279C9.11878 11.0884 9.02634 10.9658 8.89222 10.9274C7.22378 10.4503 6.05853 8.90559 6.05853 7.17094V7.01466C6.05853 6.84234 6.19872 6.70219 6.37103 6.70219C6.54334 6.70219 6.68353 6.84234 6.68353 7.01466V7.17094C6.68353 8.98022 8.1555 10.4522 9.96478 10.4522H11.4688C13.278 10.4522 14.75 8.98022 14.75 7.17094V7.01466C14.75 6.84234 14.8902 6.70219 15.0625 6.70219C15.2348 6.70219 15.375 6.84234 15.375 7.01466V7.17094C15.375 8.93762 14.1827 10.4898 12.4757 10.9457C12.3389 10.9822 12.2438 11.106 12.2438 11.2476V13.5104C12.2438 13.683 12.3837 13.8229 12.5563 13.8229C12.7289 13.8229 12.8688 13.683 12.8688 13.5104V11.4809C14.7242 10.8782 16 9.13934 16 7.17094V7.01466C16 6.49775 15.5794 6.07719 15.0625 6.07719ZM4.35822 3.33794C4.35822 2.85191 4.75359 2.45653 5.23959 2.45653C5.72559 2.45653 6.121 2.85191 6.121 3.33794V3.555C6.121 4.041 5.72563 4.43638 5.23959 4.43638C4.75359 4.43638 4.35822 4.041 4.35822 3.555V3.33794ZM11.5545 8.94466C11.5545 9.43066 11.1592 9.82603 10.6731 9.82603C10.1871 9.82603 9.79175 9.43066 9.79175 8.94466V8.72759C9.79175 8.24159 10.1871 7.84622 10.6731 7.84622C11.1591 7.84622 11.5545 8.24159 11.5545 8.72759V8.94466Z" fill="white"/>
</svg>
