<svg width="100" height="100" viewBox="0 0 100 100" fill="none" xmlns="http://www.w3.org/2000/svg">
<g clip-path="url(#clip0)">
<path d="M84.0094 87.0345H42.2445C40.9879 82.9255 37.1609 79.9285 32.6461 79.9285C28.1313 79.9285 24.3043 82.9257 23.0477 87.0345H15.9906V92.8939H23.0479C24.3045 97.0027 28.1315 99.9999 32.6463 99.9999C37.1611 99.9999 40.9881 97.0027 42.2447 92.8939H84.0094V87.0345ZM32.6463 94.1406C30.3434 94.1406 28.4699 92.2671 28.4699 89.9642C28.4699 87.6613 30.3434 85.7878 32.6463 85.7878C34.9492 85.7878 36.8227 87.6613 36.8227 89.9642C36.8225 92.2671 34.949 94.1406 32.6463 94.1406Z" fill="black"/>
<path d="M35.3953 69.2479V73.3088H64.6045V69.2479C64.6045 61.4453 67.1695 53.8842 71.827 47.9578C75.9328 42.7334 78.1941 36.1314 78.1941 29.368C78.1941 13.1744 65.5463 0 50 0C34.4537 0 21.8059 13.1744 21.8059 29.368C21.8059 36.1312 24.067 42.7332 28.1729 47.9576C32.8305 53.8842 35.3953 61.4453 35.3953 69.2479ZM41.2156 67.4494C41.1012 64.818 40.7357 62.2178 40.134 59.6885H59.8658C59.2641 62.2178 58.8988 64.818 58.7842 67.4494H41.2156ZM50 5.85938C62.3156 5.85938 72.3348 16.4053 72.3348 29.368C72.3348 34.8242 70.5184 40.1404 67.2199 44.3371C64.958 47.2152 63.1178 50.4182 61.7365 53.8291H38.2633C36.8818 50.418 35.0416 47.2152 32.7797 44.3371C29.4814 40.1404 27.665 34.8242 27.665 29.368C27.665 16.4053 37.6846 5.85938 50 5.85938Z" fill="black"/>
</g>
<defs>
<clipPath id="clip0">
<rect width="100" height="100" fill="white"/>
</clipPath>
</defs>
</svg>
