<svg width="100" height="100" viewBox="0 0 100 100" fill="none" xmlns="http://www.w3.org/2000/svg">
<path d="M93.749 14.2575H84.179V2.92962C84.179 1.31169 82.8673 0 81.2493 0H18.7508C17.1329 0 15.8212 1.31169 15.8212 2.92962V14.2575H9.18071V10.9372C9.18071 9.31931 7.86902 8.00762 6.25109 8.00762C4.63316 8.00762 3.32147 9.31931 3.32147 10.9372V24.9994C3.32147 26.6173 4.63316 27.929 6.25109 27.929C7.86902 27.929 9.18071 26.6173 9.18071 24.9994V20.1167H15.8212V31.2493C15.8212 32.8672 17.1329 34.1789 18.7508 34.1789H81.2493C82.8673 34.1789 84.179 32.8672 84.179 31.2493V20.1167H90.8194V38.3366L49.2895 48.7192C47.9853 49.0451 47.0704 50.217 47.0704 51.5613V61.1314H43.7502C42.2032 61.1314 40.9227 62.3343 40.8263 63.8782C39.1497 90.7037 39.2581 88.9186 39.2581 89.0604C39.2581 91.923 40.363 94.6427 42.3696 96.7182C46.5982 101.093 53.4008 101.095 57.6307 96.7182C59.6371 94.6427 60.7422 91.923 60.7422 89.0604C60.7422 88.9188 60.8504 90.7012 59.1741 63.8782C59.0776 62.3343 57.7971 61.1314 56.2501 61.1314H52.9299V53.8487L94.4598 43.4662C95.764 43.1402 96.6788 41.9684 96.6788 40.6241V17.1871C96.6787 15.5692 95.367 14.2575 93.749 14.2575ZM78.3197 28.3196H21.6804V5.85924H78.3197V28.3196ZM54.8822 89.1415C54.8386 91.8584 52.6207 94.1384 50.0001 94.1384C47.3794 94.1384 45.1615 91.8584 45.118 89.1415L46.5025 66.9906H53.4976L54.8822 89.1415Z" fill="black"/>
</svg>
