<?xml version="1.0" encoding="utf-8"?>
<!-- Generator: Adobe Illustrator 25.0.0, SVG Export Plug-In . SVG Version: 6.00 Build 0)  -->
<svg version="1.1" id="Layer_1" xmlns="http://www.w3.org/2000/svg" xmlns:xlink="http://www.w3.org/1999/xlink" x="0px" y="0px"
	 viewBox="0 0 1080 1080" style="enable-background:new 0 0 1080 1080;" xml:space="preserve">
<style type="text/css">
	.st0{display:none;fill:#0D0C23;}
	.st1{fill:#FFDD00;}
</style>
<rect x="-99.47" y="-82.53" class="st0" width="1294.94" height="1294.94"/>
<g>
	<path class="st1" d="M861.93,540c0,96.13-21.24,181.49-63.68,256.11c-42.48,74.64-102.67,132.5-180.53,173.55
		c-77.93,41.05-168.22,61.57-270.84,61.57H223.87c-3.16,0-5.73-2.57-5.73-5.73V824.16h-0.07v-496.7c0-3.16,2.57-5.73,5.73-5.73h98.5
		c33.8,0,62.36,5.84,85.72,17.48c23.3,11.68,40.8,27.75,52.49,48.28c11.68,20.55,17.48,44.05,17.48,70.61
		c0,24.55-5.64,47-16.88,67.28c-11.28,20.35-28.58,36.73-51.9,49.2c-23.32,12.47-52.31,18.71-86.91,18.71h0
		c-3.16,0-5.73,2.57-5.73,5.73v219.36c0,3.16,2.57,5.73,5.73,5.73h9.2c90.49,0,160.95-24.73,211.33-74.17
		c50.38-49.44,75.56-119.41,75.56-209.94c0-90.49-25.18-160.95-75.56-211.33c-50.38-50.38-120.84-75.58-211.33-75.58H223.87
		c-3.16,0-5.73-2.57-5.73-5.73V54.49c0-3.16,2.57-5.73,5.73-5.73h123.01c103.58,0,194.07,20.55,271.51,61.57
		c77.42,41.07,137.38,98.68,179.86,172.85C840.69,357.36,861.93,442.97,861.93,540z"/>
</g>
</svg>
