<svg width="1920" height="1080" viewBox="0 0 1920 1080" fill="none" xmlns="http://www.w3.org/2000/svg">
<path fill-rule="evenodd" clip-rule="evenodd" d="M-149.068 -57.7739C-58.0357 -90.4921 48.2333 -12.9395 111.982 73.1947C172.913 155.522 148.721 282.485 179.245 385.827C201.304 460.51 242.483 521.35 266.205 595.328C299.052 697.758 391.777 811.111 345.51 904.318C297.96 1000.11 153.325 914.22 76.582 977.328C-5.13465 1044.53 5.73298 1236.98 -91.3322 1263.54C-181.469 1288.21 -240.34 1136.64 -323.939 1086.94C-410.104 1035.72 -532.42 1060.56 -589.233 967.553C-645.606 875.27 -601.207 746.624 -601.101 633.225C-601.001 526.083 -644.98 400.139 -588.628 317.853C-530.11 232.403 -400.352 294.558 -325.175 230.315C-242.82 159.939 -246.318 -22.8207 -149.068 -57.7739Z" fill="#FFDD00"/>
<path fill-rule="evenodd" clip-rule="evenodd" d="M1818.15 44.4185C1880.56 -31.0495 2011.73 -23.0642 2110.37 14.6091C2204.65 50.6173 2247.64 168.851 2326.15 238.44C2382.89 288.73 2449.23 317.383 2507.05 366.206C2587.12 433.806 2724.59 478.697 2731.44 580.624C2738.48 685.374 2569.86 690.83 2535.14 783.942C2498.17 883.089 2604.53 1037.08 2533.79 1110.64C2468.1 1178.95 2340.72 1084.37 2243.23 1087.48C2142.75 1090.68 2049.26 1176.21 1953.17 1129.15C1857.82 1082.46 1831.5 952.108 1774.46 857.916C1720.58 768.921 1619.02 687.709 1626.41 589.498C1634.08 487.509 1777.85 470.248 1810.64 377.024C1846.57 274.899 1751.47 125.042 1818.15 44.4185Z" fill="#FFDD00"/>
</svg>
