<svg width="28" height="28" viewBox="0 0 28 28" fill="none" xmlns="http://www.w3.org/2000/svg">
<g clip-path="url(#clip0)">
<path d="M27.6579 26.0084L19.6955 18.0459C21.2378 16.1408 22.1664 13.72 22.1664 11.0833C22.1664 4.97239 17.1941 8.7738e-05 11.0832 8.7738e-05C4.97225 8.7738e-05 0 4.97234 0 11.0833C0 17.1942 4.9723 22.1665 11.0832 22.1665C13.7199 22.1665 16.1407 21.2379 18.0458 19.6956L26.0082 27.658C26.2357 27.8855 26.5344 27.9998 26.8331 27.9998C27.1318 27.9998 27.4304 27.8855 27.6579 27.658C28.1141 27.2019 28.1141 26.4645 27.6579 26.0084ZM11.0832 19.8332C6.25794 19.8332 2.33333 15.9086 2.33333 11.0833C2.33333 6.25798 6.25794 2.33336 11.0832 2.33336C15.9085 2.33336 19.8332 6.25798 19.8332 11.0833C19.8332 15.9086 15.9085 19.8332 11.0832 19.8332Z" fill="white"/>
</g>
<defs>
<clipPath id="clip0">
<rect width="28" height="28" fill="white"/>
</clipPath>
</defs>
</svg>
