<svg width="467" height="309" viewBox="0 0 467 309" fill="none" xmlns="http://www.w3.org/2000/svg">
<path d="M448.745 206.789C445.373 210.47 441.191 213.21 436.653 215.337H436.648C436.221 215.54 435.794 215.737 435.361 215.923H435.356L435.35 215.928L435.345 215.923H435.34C435.34 215.923 435.34 215.924 435.339 215.925C435.339 215.925 435.339 215.926 435.338 215.927C435.338 215.927 435.337 215.928 435.336 215.928C435.336 215.928 435.335 215.928 435.334 215.928H435.328L435.323 215.923C435.318 215.928 435.318 215.928 435.312 215.923L435.307 215.928L435.301 215.923H435.296C435.29 215.928 435.29 215.928 435.285 215.923H435.279C432.242 217.235 429.122 218.35 425.941 219.259C407.23 224.562 387.565 225.588 368.403 222.261C368.036 222.196 367.675 222.13 367.308 222.064V177.705C367.669 177.552 368.036 177.399 368.403 177.251C370.795 176.261 373.216 175.352 375.667 174.522C379.192 173.319 382.767 172.287 386.391 171.427C398.213 168.568 410.412 167.582 422.541 168.506C424.747 168.67 426.948 168.907 429.143 169.217C433.736 169.857 438.553 170.973 442.79 172.909H442.795C443.414 173.199 444.021 173.499 444.624 173.822C448.39 175.862 451.565 178.668 453.502 182.512C454.199 183.893 454.7 185.364 454.991 186.882V186.893C455.101 187.418 455.177 187.949 455.238 188.474C455.927 194.949 453.24 201.878 448.745 206.789Z" fill="#F2F2F2"/>
<path d="M455.238 188.474C455.184 188.487 455.129 188.494 455.073 188.495C445.696 188.906 436.332 189.515 426.981 190.322H426.964C426.926 190.328 426.893 190.328 426.855 190.333C417.253 191.164 407.672 192.205 398.111 193.456C397.706 193.511 397.306 193.565 396.906 193.615C390.294 194.495 383.694 195.472 377.107 196.546C374.2 197.022 371.299 197.518 368.403 198.033C368.036 198.099 367.675 198.159 367.308 198.23V196.573C367.675 196.502 368.042 196.442 368.403 196.376C378.048 194.67 387.726 193.181 397.437 191.908C399.879 191.58 402.324 191.27 404.772 190.978C411.845 190.125 418.928 189.389 426.023 188.769C426.543 188.725 427.057 188.681 427.577 188.638C436.659 187.867 445.753 187.281 454.86 186.882C454.904 186.88 454.948 186.884 454.991 186.893C455.867 186.97 456.053 188.282 455.238 188.474Z" fill="white"/>
<path d="M435.765 214.311C424.083 214.397 412.575 209.448 404.312 201.257C401.98 198.937 399.926 196.354 398.19 193.562C397.633 192.669 396.33 193.654 396.882 194.538C403.299 204.82 413.988 212.145 425.773 214.838C429.12 215.595 432.543 215.961 435.974 215.928C437.022 215.921 436.805 214.303 435.765 214.311V214.311Z" fill="white"/>
<path d="M386.391 171.427C386.34 171.581 386.251 171.718 386.131 171.827C386.011 171.935 385.864 172.01 385.706 172.045C383.029 172.746 380.443 173.755 377.999 175.053C374.43 176.936 371.19 179.383 368.403 182.299C368.255 182.447 368.113 182.594 367.976 182.748C367.746 182.988 367.527 183.234 367.308 183.486V181.101C367.659 180.73 368.025 180.363 368.403 180.013C370.603 177.908 373.041 176.066 375.667 174.522C379.192 173.319 382.767 172.287 386.391 171.427Z" fill="white"/>
<path d="M443.758 172.478C436.327 175.668 430.109 181.145 426.01 188.111C425.927 188.31 425.926 188.534 426.007 188.734C426.088 188.934 426.245 189.094 426.444 189.18C426.644 189.259 426.866 189.258 427.066 189.177C427.265 189.096 427.425 188.942 427.513 188.746C431.426 182.167 437.329 177 444.371 173.989C445.338 173.576 444.726 172.064 443.758 172.478L443.758 172.478Z" fill="white"/>
<path d="M466.158 126.028C464.888 130.852 462.452 135.222 459.425 139.209L459.42 139.214C459.141 139.586 458.851 139.963 458.55 140.324V140.33C456.448 142.917 454.178 145.363 451.756 147.653C443.049 155.943 433.213 162.963 422.541 168.506C405.752 177.267 386.987 182.447 368.403 182.742C368.261 182.747 368.118 182.747 367.976 182.747C367.752 182.753 367.527 182.753 367.308 182.753V157.896C367.664 157.218 368.031 156.54 368.403 155.867C373.233 147.185 379.122 139.135 385.936 131.902C386.101 131.721 386.27 131.541 386.44 131.366C389.002 128.664 391.688 126.092 394.498 123.649C405.308 114.153 417.801 106.761 431.332 101.855C435.695 100.291 440.48 99.0386 445.133 98.7924C445.817 98.7542 446.496 98.7377 447.18 98.7432C451.466 98.8034 455.577 99.8151 459.086 102.32C460.342 103.222 461.47 104.291 462.436 105.497C462.775 105.919 463.088 106.351 463.389 106.794V106.799C467.012 112.213 467.855 119.591 466.158 126.028Z" fill="#F2F2F2"/>
<path d="M463.388 106.794V106.799C463.348 106.834 463.304 106.866 463.257 106.892C455.155 111.601 447.156 116.481 439.259 121.533C439.248 121.538 439.243 121.544 439.232 121.549C439.2 121.571 439.167 121.591 439.133 121.609C431.015 126.805 423.012 132.175 415.124 137.721C414.795 137.951 414.462 138.186 414.128 138.421C408.681 142.266 403.291 146.193 397.957 150.201C387.885 157.781 378.033 165.642 368.403 173.784C368.036 174.09 367.675 174.402 367.308 174.714V172.586C367.669 172.274 368.036 171.963 368.403 171.656C372.093 168.544 375.815 165.476 379.57 162.452C380.692 161.55 381.82 160.647 382.947 159.756C392.965 151.787 403.207 144.116 413.673 136.742H413.679C415.737 135.293 417.799 133.856 419.864 132.432C425.733 128.396 431.667 124.457 437.666 120.614C438.098 120.335 438.536 120.056 438.974 119.777C446.654 114.877 454.435 110.137 462.316 105.558C462.354 105.534 462.394 105.514 462.436 105.498C463.257 105.169 464.029 106.252 463.388 106.794Z" fill="white"/>
<path d="M458.16 138.713C447.855 144.21 435.363 145.169 424.237 141.75C421.094 140.777 418.074 139.444 415.238 137.777C414.329 137.245 413.633 138.721 414.534 139.248C424.997 145.375 437.868 146.901 449.557 143.817C452.872 142.934 456.074 141.67 459.098 140.048C460.022 139.555 459.078 138.223 458.16 138.713V138.713Z" fill="white"/>
<path d="M381.06 158.723C380.55 155.86 380.375 152.948 380.538 150.044C380.907 143.423 382.937 137 386.44 131.367C389.005 128.666 391.691 126.094 394.499 123.649C394.526 123.809 394.51 123.973 394.454 124.125C394.398 124.277 394.303 124.412 394.179 124.516C392.135 126.379 390.314 128.473 388.753 130.755C383.175 138.887 380.999 148.875 382.686 158.588C382.714 158.698 382.712 158.813 382.682 158.923C382.652 159.032 382.594 159.132 382.515 159.213C382.398 159.315 382.256 159.384 382.104 159.414C381.951 159.445 381.794 159.434 381.647 159.385C381.499 159.335 381.368 159.248 381.265 159.132C381.162 159.016 381.091 158.875 381.06 158.723Z" fill="white"/>
<path d="M445.788 97.957C440.692 104.231 437.732 111.967 437.34 120.038C437.359 120.253 437.463 120.452 437.628 120.591C437.793 120.731 438.006 120.8 438.221 120.783C438.435 120.76 438.632 120.656 438.771 120.492C438.909 120.328 438.98 120.117 438.967 119.903C439.373 112.261 442.198 104.945 447.034 99.0104C447.698 98.1967 446.454 97.1416 445.788 97.957Z" fill="white"/>
<path d="M389.1 115.927V115.932C389.062 116.403 389.018 116.868 388.969 117.333V117.343C388.588 120.652 387.994 123.933 387.19 127.166C386.807 128.752 386.391 130.327 385.936 131.902C385.882 132.104 385.821 132.307 385.761 132.504V132.509C384.424 137.09 382.827 141.591 380.977 145.99C377.573 154.09 373.36 161.826 368.403 169.08C368.047 169.611 367.68 170.141 367.308 170.666V85.0215C367.675 84.9997 368.036 84.9997 368.403 85.0106C368.578 85.0106 368.753 85.0161 368.928 85.027C370.473 85.1081 371.999 85.4045 373.461 85.9075C373.976 86.0771 374.474 86.2685 374.966 86.4818C380.938 89.096 385.63 94.8603 387.666 101.199C389.193 105.946 389.5 110.939 389.1 115.927Z" fill="#F2F2F2"/>
<path d="M374.966 86.4817C374.954 86.5353 374.933 86.5868 374.906 86.6348C372.689 90.9389 370.521 95.265 368.403 99.6128C368.036 100.362 367.669 101.117 367.308 101.866V98.1471C367.669 97.4033 368.034 96.6595 368.403 95.9157C370.04 92.6015 371.704 89.3018 373.395 86.0168C373.414 85.9784 373.436 85.9418 373.461 85.9074C373.965 85.1855 375.213 85.6777 374.966 86.4817Z" fill="white"/>
<path d="M389.275 116.807C389.177 116.982 389.078 117.157 388.969 117.332C387.361 120.131 385.448 122.743 383.265 125.12C379.071 129.666 374.021 133.34 368.403 135.933C368.042 136.108 367.675 136.272 367.308 136.425V134.647C367.675 134.483 368.042 134.314 368.403 134.139C376.535 130.264 383.289 124.002 387.765 116.189C387.829 116.078 387.917 115.982 388.022 115.907C388.127 115.832 388.247 115.781 388.374 115.756C388.5 115.732 388.631 115.735 388.756 115.766C388.882 115.796 388.999 115.853 389.1 115.932C389.169 115.978 389.229 116.037 389.275 116.106C389.321 116.175 389.353 116.252 389.369 116.334C389.386 116.415 389.386 116.499 389.37 116.58C389.354 116.661 389.321 116.739 389.275 116.807Z" fill="white"/>
<path d="M368.403 18.0478V59.6124H367.308V59.1694H1.09481V59.6124H0V18.0478C0.00470131 13.2627 1.90941 8.67486 5.29611 5.29126C8.68281 1.90766 13.2748 0.004697 18.0643 0H350.339C355.128 0.004697 359.72 1.90766 363.107 5.29126C366.494 8.67486 368.398 13.2627 368.403 18.0478Z" fill="#0D0C23"/>
<path d="M350.339 0H18.0643C13.2748 0.004697 8.68281 1.90766 5.29611 5.29126C1.90941 8.67486 0.00470131 13.2627 0 18.0478V255.404C0.00470131 260.189 1.90941 264.776 5.29611 268.16C8.68281 271.544 13.2748 273.447 18.0643 273.451H350.339C355.128 273.447 359.72 271.544 363.107 268.16C366.494 264.776 368.398 260.189 368.403 255.404V18.0478C368.398 13.2627 366.494 8.67486 363.107 5.29126C359.72 1.90766 355.128 0.004697 350.339 0ZM367.308 255.404C367.302 259.898 365.513 264.207 362.332 267.385C359.15 270.564 354.837 272.352 350.339 272.358H18.0643C13.5655 272.352 9.25256 270.564 6.0714 267.385C2.89024 264.207 1.10055 259.898 1.09481 255.404V18.0478C1.10055 13.5531 2.89024 9.2441 6.0714 6.06585C9.25256 2.8876 13.5655 1.09954 18.0643 1.09381H350.339C354.837 1.09954 359.15 2.8876 362.332 6.06585C365.513 9.24409 367.302 13.5531 367.308 18.0478V255.404Z" fill="#3F3D56"/>
<path d="M74.4469 40.7443C80.4933 40.7443 85.3949 35.8471 85.3949 29.8062C85.3949 23.7653 80.4933 18.8682 74.4469 18.8682C68.4004 18.8682 63.4988 23.7653 63.4988 29.8062C63.4988 35.8471 68.4004 40.7443 74.4469 40.7443Z" fill="white"/>
<path d="M293.956 40.7443C300.002 40.7443 304.904 35.8471 304.904 29.8062C304.904 23.7653 300.002 18.8682 293.956 18.8682C287.909 18.8682 283.008 23.7653 283.008 29.8062C283.008 35.8471 287.909 40.7443 293.956 40.7443Z" fill="white"/>
<path d="M106.078 151.767H40.9504C38.1913 151.763 35.546 150.667 33.595 148.718C31.644 146.769 30.5466 144.126 30.5435 141.369V110.615C30.5466 107.859 31.644 105.216 33.595 103.267C35.546 101.318 38.1913 100.221 40.9504 100.218H106.078C108.838 100.221 111.483 101.318 113.434 103.267C115.385 105.216 116.482 107.859 116.485 110.615V141.369C116.482 144.126 115.385 146.769 113.434 148.718C111.483 150.667 108.838 151.763 106.078 151.767Z" fill="#0D0C23"/>
<path d="M216.872 151.767H151.744C148.985 151.763 146.34 150.667 144.389 148.718C142.438 146.769 141.341 144.126 141.337 141.369V110.615C141.341 107.859 142.438 105.216 144.389 103.267C146.34 101.318 148.985 100.221 151.744 100.218H216.872C219.632 100.221 222.277 101.318 224.228 103.267C226.179 105.216 227.276 107.859 227.279 110.615V141.369C227.276 144.126 226.179 146.769 224.228 148.718C222.277 150.667 219.632 151.763 216.872 151.767Z" fill="#0D0C23"/>
<path d="M216.872 231.227H151.744C148.902 231.224 146.176 230.094 144.166 228.086C142.156 226.077 141.025 223.355 141.022 220.514V189.76C141.025 186.92 142.156 184.197 144.166 182.189C146.176 180.181 148.902 179.051 151.744 179.048H216.872C219.715 179.051 222.441 180.181 224.451 182.189C226.461 184.197 227.591 186.92 227.595 189.76V220.514C227.591 223.355 226.461 226.077 224.451 228.086C222.441 230.094 219.715 231.224 216.872 231.227Z" fill="#F2F2F2"/>
<path d="M105.865 231.227H40.7369C37.8942 231.224 35.1688 230.094 33.1587 228.086C31.1485 226.077 30.0178 223.355 30.0146 220.514V189.76C30.0178 186.92 31.1485 184.197 33.1587 182.189C35.1688 180.181 37.8942 179.051 40.7369 179.048H105.865C108.708 179.051 111.433 180.181 113.443 182.189C115.453 184.197 116.584 186.92 116.587 189.76V220.514C116.584 223.355 115.453 226.077 113.443 228.086C111.433 230.094 108.708 231.224 105.865 231.227Z" fill="#F2F2F2"/>
<path d="M327.666 231.227H262.538C259.695 231.224 256.97 230.094 254.96 228.086C252.95 226.077 251.819 223.355 251.816 220.514V189.76C251.819 186.92 252.95 184.197 254.96 182.189C256.97 180.181 259.695 179.051 262.538 179.048H327.666C330.509 179.051 333.234 180.181 335.244 182.189C337.254 184.197 338.385 186.92 338.388 189.76V220.514C338.385 223.355 337.254 226.077 335.244 228.086C333.234 230.094 330.509 231.224 327.666 231.227Z" fill="#F2F2F2"/>
<path d="M327.666 151.828H262.538C259.695 151.825 256.97 150.696 254.96 148.687C252.95 146.679 251.819 143.956 251.816 141.116V110.362C251.819 107.522 252.95 104.799 254.96 102.791C256.97 100.782 259.695 99.6526 262.538 99.6494H327.666C330.509 99.6526 333.234 100.782 335.244 102.791C337.254 104.799 338.385 107.522 338.388 110.362V141.116C338.385 143.956 337.254 146.679 335.244 148.687C333.234 150.696 330.509 151.825 327.666 151.828Z" fill="#F2F2F2"/>
<path d="M73.5145 143.636C83.268 143.636 91.1748 135.737 91.1748 125.992C91.1748 116.248 83.268 108.348 73.5145 108.348C63.761 108.348 55.8542 116.248 55.8542 125.992C55.8542 135.737 63.761 143.636 73.5145 143.636Z" fill="white"/>
<path d="M71.764 132.723C71.3666 132.724 70.9799 132.596 70.6619 132.357L70.6422 132.343L66.4919 129.168C66.2995 129.021 66.1379 128.837 66.0164 128.628C65.895 128.418 65.816 128.187 65.7841 127.947C65.7522 127.707 65.768 127.463 65.8304 127.229C65.8929 126.996 66.0009 126.776 66.1483 126.584C66.2957 126.392 66.4795 126.231 66.6893 126.11C66.899 125.988 67.1307 125.91 67.3709 125.878C67.6111 125.847 67.8552 125.862 68.0892 125.925C68.3233 125.988 68.5426 126.096 68.7348 126.243L71.4231 128.303L77.7758 120.025C77.9232 119.833 78.1069 119.672 78.3165 119.551C78.5262 119.43 78.7577 119.352 78.9977 119.32C79.2378 119.288 79.4817 119.304 79.7157 119.367C79.9496 119.429 80.1689 119.537 80.361 119.685L80.3215 119.738L80.362 119.685C80.7496 119.983 81.0032 120.422 81.0672 120.906C81.1312 121.39 81.0003 121.88 80.7033 122.268L73.2309 132.004C73.0581 132.229 72.8359 132.41 72.5815 132.535C72.3271 132.659 72.0473 132.724 71.764 132.723Z" fill="#0D0C23"/>
<path d="M184.624 143.383C194.377 143.383 202.284 135.483 202.284 125.739C202.284 115.994 194.377 108.095 184.624 108.095C174.87 108.095 166.963 115.994 166.963 125.739C166.963 135.483 174.87 143.383 184.624 143.383Z" fill="white"/>
<path d="M182.873 132.47C182.476 132.47 182.089 132.342 181.771 132.104L181.751 132.089L177.601 128.915C177.213 128.617 176.959 128.178 176.895 127.694C176.83 127.21 176.961 126.72 177.259 126.332C177.556 125.944 177.996 125.69 178.481 125.626C178.965 125.562 179.456 125.693 179.844 125.99L182.532 128.049L188.885 119.772C189.032 119.58 189.216 119.419 189.426 119.298C189.635 119.177 189.867 119.098 190.107 119.067C190.347 119.035 190.591 119.051 190.825 119.113C191.059 119.176 191.278 119.284 191.47 119.431L191.431 119.485L191.471 119.432C191.859 119.73 192.112 120.169 192.176 120.653C192.24 121.137 192.109 121.627 191.812 122.015L184.34 131.751C184.167 131.975 183.945 132.157 183.691 132.281C183.436 132.406 183.157 132.47 182.873 132.47Z" fill="#0D0C23"/>
<path d="M303.98 208.999C304.56 208.365 304.994 207.612 305.252 206.792C305.509 205.973 305.583 205.107 305.469 204.255C305.355 203.404 305.056 202.588 304.592 201.865C304.129 201.141 303.512 200.529 302.785 200.069L292.926 147.472L280.935 151.914L294.397 202.219C293.706 203.489 293.505 204.969 293.832 206.378C294.16 207.786 294.993 209.026 296.175 209.861C297.356 210.697 298.803 211.071 300.241 210.912C301.68 210.753 303.01 210.072 303.98 208.999Z" fill="#A0616A"/>
<path d="M208.302 128.741C208.332 129.068 208.336 129.396 208.314 129.723L231.628 147.651L238.239 144.938L243.641 154.372L232.404 160.31C231.496 160.79 230.457 160.962 229.442 160.802C228.428 160.641 227.493 160.156 226.778 159.42L203.475 135.417C202.241 135.695 200.952 135.591 199.779 135.119C198.606 134.647 197.605 133.83 196.908 132.775C196.211 131.721 195.852 130.48 195.879 129.217C195.906 127.954 196.317 126.729 197.057 125.704C197.798 124.68 198.833 123.906 200.025 123.484C201.217 123.062 202.509 123.012 203.73 123.342C204.95 123.672 206.042 124.365 206.858 125.329C207.675 126.294 208.179 127.484 208.302 128.741H208.302Z" fill="#A0616A"/>
<path d="M262.769 302.355H256.059L252.866 281.962L262.771 281.962L262.769 302.355Z" fill="#A0616A"/>
<path d="M264.481 308.854L242.842 308.853V308.58C242.842 307.475 243.06 306.38 243.483 305.36C243.906 304.339 244.527 303.411 245.309 302.63C246.091 301.848 247.019 301.228 248.041 300.806C249.063 300.383 250.158 300.165 251.264 300.165H251.265L264.481 300.166L264.481 308.854Z" fill="#2F2E41"/>
<path d="M287.95 302.355H281.239L278.046 281.962L287.951 281.962L287.95 302.355Z" fill="#A0616A"/>
<path d="M289.662 308.854L268.022 308.853V308.58C268.022 307.475 268.24 306.38 268.664 305.36C269.087 304.339 269.707 303.411 270.489 302.63C271.271 301.848 272.2 301.228 273.222 300.806C274.244 300.383 275.339 300.165 276.445 300.165H276.446L289.662 300.166L289.662 308.854Z" fill="#2F2E41"/>
<path d="M254.665 298.324C254.052 298.325 253.462 298.097 253.008 297.685C252.555 297.273 252.272 296.706 252.215 296.097L246.367 217.513L246.644 217.49L286.889 214.186L286.9 214.471L290.099 295.878C290.112 296.209 290.057 296.539 289.939 296.848C289.821 297.157 289.642 297.439 289.412 297.677C289.182 297.916 288.906 298.105 288.602 298.235C288.297 298.364 287.969 298.431 287.638 298.431H279.747C279.157 298.434 278.587 298.224 278.14 297.841C277.693 297.458 277.399 296.926 277.312 296.344L266.596 230.582C266.585 230.514 266.55 230.453 266.496 230.41C266.442 230.367 266.374 230.346 266.306 230.351C266.237 230.356 266.173 230.386 266.126 230.437C266.079 230.487 266.052 230.553 266.052 230.621L265.566 295.552C265.561 296.179 265.316 296.78 264.883 297.234C264.449 297.687 263.859 297.958 263.232 297.992L254.797 298.32C254.753 298.323 254.709 298.324 254.665 298.324Z" fill="#2F2E41"/>
<path d="M261.534 118.199C268.96 118.199 274.979 112.186 274.979 104.767C274.979 97.3484 268.96 91.3345 261.534 91.3345C254.109 91.3345 248.089 97.3484 248.089 104.767C248.089 112.186 254.109 118.199 261.534 118.199Z" fill="#A0616A"/>
<path d="M264.137 222.525C258.261 222.507 252.413 221.709 246.747 220.15C246.202 219.992 245.728 219.65 245.405 219.183C245.083 218.716 244.931 218.153 244.976 217.587C246.786 190.41 247.211 169.319 243.405 154.727C241.783 148.507 242.519 141.957 245.426 136.755C249.799 128.928 257.838 124.163 266.413 124.328C266.823 124.336 267.237 124.35 267.655 124.372C280.668 125.041 290.808 136.803 290.259 150.591L287.642 216.312C287.632 216.791 287.481 217.257 287.207 217.651C286.932 218.044 286.547 218.348 286.101 218.523C279.079 221.162 271.639 222.518 264.137 222.525Z" fill="#3F3D56"/>
<path d="M245.617 159.773L235.547 147.443C235.26 147.092 235.052 146.684 234.938 146.246C234.824 145.807 234.805 145.35 234.884 144.904C234.963 144.458 235.137 144.034 235.394 143.662C235.651 143.289 235.986 142.976 236.375 142.744L250.018 134.623C251.822 133.168 254.131 132.487 256.437 132.731C258.743 132.974 260.859 134.121 262.32 135.92C263.781 137.719 264.468 140.024 264.23 142.329C263.993 144.634 262.85 146.75 261.053 148.215L250.391 159.904C250.086 160.238 249.712 160.503 249.295 160.68C248.878 160.857 248.427 160.943 247.974 160.93C247.521 160.918 247.076 160.808 246.67 160.608C246.263 160.408 245.904 160.123 245.617 159.773Z" fill="#3F3D56"/>
<path d="M277.298 158.226C276.885 158.041 276.516 157.769 276.217 157.428C275.918 157.088 275.696 156.687 275.566 156.253L271.033 141.101C270.049 139.003 269.938 136.601 270.724 134.421C271.51 132.241 273.13 130.462 275.227 129.473C277.325 128.485 279.729 128.368 281.913 129.148C284.097 129.928 285.882 131.542 286.877 133.635L295.644 146.864C295.894 147.241 296.06 147.668 296.13 148.116C296.2 148.563 296.173 149.02 296.05 149.456C295.928 149.892 295.712 150.296 295.419 150.642C295.126 150.987 294.762 151.265 294.351 151.457L279.925 158.204C279.514 158.396 279.067 158.497 278.614 158.501C278.161 158.505 277.712 158.411 277.298 158.226Z" fill="#3F3D56"/>
<path d="M268.178 115.789L258.212 113.51C257.184 113.275 255.949 112.826 255.806 111.782C255.615 110.379 257.636 109.402 257.449 107.999C257.269 106.639 255.428 106.464 254.115 106.063C252.893 105.634 251.885 104.747 251.306 103.59C250.726 102.432 250.62 101.095 251.01 99.8605C249.59 101.86 246.345 102.031 244.503 100.411C242.661 98.7914 242.308 95.8523 243.414 93.6638C244.012 92.5888 244.855 91.6699 245.875 90.9818C246.895 90.2938 248.063 89.8559 249.285 89.7039C251.74 89.4257 254.223 89.8881 256.414 91.0317C256.56 89.4821 258.496 88.8539 260.054 88.8401C263.29 88.8778 266.434 89.9224 269.048 91.8286C271.662 93.7347 273.616 96.4077 274.638 99.4753C276.55 105.629 275.271 112.375 269.923 115.975L268.178 115.789Z" fill="#2F2E41"/>
</svg>
