<svg width="562" height="330" viewBox="0 0 562 330" fill="none" xmlns="http://www.w3.org/2000/svg">
<g clip-path="url(#clip0)">
<path d="M381.8 104.709H370.623C370.265 104.71 369.919 104.577 369.653 104.335C369.387 104.094 369.222 103.762 369.188 103.404L366.951 80.4254H385.472L383.235 103.404C383.202 103.762 383.036 104.094 382.77 104.335C382.504 104.577 382.158 104.71 381.8 104.709Z" fill="#E6E6E6"/>
<path d="M385.443 83.3163H366.98C366.598 83.3158 366.231 83.1634 365.961 82.8924C365.69 82.6215 365.538 82.2541 365.538 81.8709V78.4018C365.538 78.0186 365.69 77.6512 365.961 77.3802C366.231 77.1092 366.598 76.9568 366.98 76.9563H385.443C385.825 76.9568 386.192 77.1092 386.462 77.3802C386.733 77.6512 386.885 78.0186 386.885 78.4018V81.8709C386.885 82.2541 386.733 82.6214 386.462 82.8924C386.192 83.1634 385.825 83.3158 385.443 83.3163Z" fill="#CCCCCC"/>
<path d="M251.04 80.024H206.764V66.5546C220.755 56.7974 233.151 57.6455 249.458 67.3469L251.04 80.024Z" fill="#0D0C23"/>
<path d="M196.512 319.27L186.818 319.269L185.369 281.802L196.513 281.803L196.512 319.27Z" fill="#FFB8B8"/>
<path d="M198.983 328.685L167.729 328.684V328.288C167.729 326.687 168.043 325.102 168.655 323.623C169.266 322.144 170.162 320.8 171.292 319.668C172.421 318.536 173.763 317.638 175.239 317.025C176.714 316.412 178.296 316.097 179.894 316.097H179.895L198.984 316.098L198.983 328.685Z" fill="#2F2E41"/>
<path d="M251.107 319.27L260.801 319.269L262.25 281.802L251.106 281.803L251.107 319.27Z" fill="#FFB8B8"/>
<path d="M248.635 316.098L267.724 316.097H267.725C269.323 316.097 270.905 316.412 272.38 317.025C273.856 317.638 275.197 318.536 276.327 319.668C277.457 320.8 278.353 322.144 278.964 323.623C279.576 325.102 279.89 326.687 279.89 328.288V328.684L248.636 328.685L248.635 316.098Z" fill="#2F2E41"/>
<path d="M251.362 314.467C250.554 314.465 249.77 314.187 249.139 313.68C248.508 313.173 248.067 312.467 247.888 311.676L223.864 206.664C223.811 206.397 223.666 206.157 223.454 205.987C223.242 205.817 222.977 205.727 222.706 205.734H222.7C222.428 205.728 222.162 205.82 221.951 205.993C221.739 206.165 221.596 206.407 221.545 206.675L199.483 310.98C199.311 311.778 198.872 312.493 198.239 313.007C197.606 313.521 196.817 313.803 196.002 313.806H185.493C185.008 313.806 184.528 313.706 184.083 313.514C183.638 313.321 183.236 313.04 182.904 312.686C182.571 312.332 182.314 311.914 182.149 311.458C181.983 311.001 181.912 310.515 181.941 310.03L189.769 177.828L192.919 176.894L192.978 176.894L254.852 177.437L268.03 309.494C268.076 309.965 268.028 310.44 267.888 310.892C267.749 311.345 267.521 311.764 267.218 312.128C266.915 312.491 266.543 312.789 266.124 313.007C265.704 313.224 265.246 313.356 264.775 313.393L251.647 314.456C251.552 314.464 251.457 314.467 251.362 314.467Z" fill="#2F2E41"/>
<path d="M225.811 55.8836C236.536 55.8836 245.23 47.171 245.23 36.4235C245.23 25.676 236.536 16.9634 225.811 16.9634C215.086 16.9634 206.392 25.676 206.392 36.4235C206.392 47.171 215.086 55.8836 225.811 55.8836Z" fill="#FFB8B8"/>
<path d="M213.915 192.322C210.508 192.364 207.115 191.886 203.852 190.903C200.95 190.026 198.258 188.563 195.941 186.604C193.625 184.646 191.732 182.233 190.381 179.514C189.953 178.695 189.858 177.743 190.116 176.856C192.258 169.531 202.607 131.455 196.004 101.187C195.072 96.9824 194.994 92.6325 195.776 88.3971C196.558 84.1616 198.183 80.1273 200.554 76.5348C202.87 72.9705 205.879 69.9101 209.401 67.5363C212.923 65.1625 216.885 63.5238 221.053 62.718L221.053 62.7172C222.148 62.5029 223.25 62.3272 224.326 62.1942C228.933 61.6259 233.608 62.0851 238.017 63.5388C242.426 64.9925 246.46 67.4049 249.83 70.6032C253.3 73.8644 256.008 77.8541 257.76 82.2866C259.512 86.7192 260.264 91.485 259.963 96.2429L254.888 177.855C254.853 178.466 254.659 179.059 254.327 179.573C253.995 180.087 253.534 180.506 252.992 180.789C247.147 183.858 229.589 192.322 213.915 192.322Z" fill="#3F3D56"/>
<path d="M247.748 22.0991C245.731 17.0188 242.036 12.7855 237.28 10.1058C232.524 7.42616 226.995 6.46221 221.616 7.37488L227.738 12.333C220.131 12.5898 212.124 12.0439 206.692 17.3875C208.421 17.3394 210.688 21.0459 212.417 20.9978C209.184 21.0619 206.252 23.3382 204.824 26.2455C203.502 29.2323 203.193 32.5712 203.944 35.751C204.582 38.9275 209.453 46.3693 210.764 49.3314C210.539 41.5903 225.746 23.126 233.172 25.0529C229.399 26.4558 226.125 28.9468 223.763 32.2117C228.815 29.6567 234.529 28.7198 240.13 29.5281C241.409 29.822 242.728 29.896 244.032 29.747C244.831 29.5886 245.576 29.2276 246.196 28.6984C246.816 28.1692 247.29 27.4896 247.574 26.7243C247.857 25.9591 247.94 25.1339 247.814 24.3275C247.688 23.5211 247.359 22.7604 246.856 22.1182L247.748 22.0991Z" fill="#2F2E41"/>
<path d="M212.577 187.422C212.087 187.421 211.602 187.318 211.153 187.12L174.308 171.004C173.526 170.668 172.891 170.06 172.52 169.292C172.149 168.524 172.067 167.647 172.29 166.823L196.681 74.4875C197.134 72.7694 197.925 71.1592 199.007 69.7511C200.089 68.343 201.441 67.1654 202.982 66.2872C204.524 65.409 206.225 64.8477 207.986 64.6364C209.747 64.425 211.532 64.5678 213.237 65.0563L222.99 67.8456L216.124 184.063C216.089 184.637 215.916 185.193 215.621 185.685C215.326 186.178 214.916 186.591 214.428 186.892C213.872 187.237 213.231 187.42 212.577 187.422Z" fill="#0D0C23"/>
<path d="M280.768 166.822L279.147 160.698L276.799 151.792L275.668 147.521L273.32 138.64L256.377 74.4857C255.925 72.7669 255.135 71.1558 254.053 69.747C252.971 68.3383 251.62 67.1602 250.077 66.282C248.535 65.4037 246.834 64.843 245.072 64.6327C243.311 64.4223 241.526 64.5666 239.821 65.0571L230.072 67.8461L234.903 149.589L235.401 158.123L235.717 163.503V163.51L236.223 171.996L236.935 184.063C236.993 184.969 237.392 185.819 238.05 186.443C238.709 187.066 239.579 187.416 240.485 187.423C240.975 187.42 241.459 187.317 241.908 187.121L278.751 171.006C279.535 170.67 280.17 170.061 280.541 169.292C280.911 168.523 280.992 167.646 280.768 166.822Z" fill="#0D0C23"/>
<path d="M275.668 147.521L235.401 158.123L234.902 149.589L273.32 138.64L275.668 147.521Z" fill="#CCCCCC"/>
<path d="M279.147 160.698L236.223 171.996L235.718 163.51V163.503L276.799 151.792L279.147 160.698Z" fill="#CCCCCC"/>
<path d="M217.659 151.428L217.161 159.802L177.669 148.013L179.985 139.25L217.659 151.428Z" fill="#CCCCCC"/>
<path d="M216.836 165.317L176.538 152.283L174.221 161.07L216.346 173.644L216.836 165.317Z" fill="#CCCCCC"/>
<path d="M177.241 174.075C178.442 173.761 179.56 173.187 180.516 172.392C181.472 171.598 182.243 170.604 182.774 169.479C183.304 168.354 183.583 167.126 183.589 165.882C183.595 164.638 183.329 163.407 182.809 162.277L201.755 102.674L188.321 99.8549L170.951 158.291C169.115 159.292 167.708 160.933 166.998 162.903C166.288 164.874 166.325 167.037 167.1 168.982C167.875 170.928 169.336 172.521 171.205 173.46C173.074 174.398 175.221 174.617 177.241 174.075Z" fill="#FFB8B8"/>
<path d="M202.281 73.3731C206.138 73.7674 208.308 78.1139 207.349 83.526L202.746 109.497C202.401 111.444 200.803 112.985 199.474 112.652L183.906 108.752C182.708 108.452 182.266 106.747 182.945 105.04L192.291 81.5453C194.321 76.4429 198.541 72.9908 202.281 73.3731Z" fill="#3F3D56"/>
<path d="M225.739 4.46957e-10C232.312 0.000706418 238.626 2.56479 243.344 7.14931C248.063 11.7338 250.816 17.9788 251.02 24.5618H255.784C256.203 24.5618 256.605 24.7288 256.902 25.026C257.198 25.3232 257.365 25.7262 257.365 26.1465V32.485C257.365 32.9053 257.198 33.3083 256.902 33.6055C256.605 33.9027 256.203 34.0696 255.784 34.0696H202.02C201.601 34.0696 201.199 33.9027 200.902 33.6055C200.606 33.3083 200.439 32.9053 200.439 32.485V25.3541C200.439 22.0245 201.093 18.7276 202.365 15.6515C203.636 12.5754 205.5 9.78035 207.849 7.426C210.199 5.07165 212.988 3.20407 216.057 1.92992C219.127 0.655764 222.417 -1.97689e-05 225.739 4.46957e-10Z" fill="#0D0C23"/>
<path d="M228.763 156.724H217.586C217.228 156.725 216.882 156.592 216.616 156.351C216.35 156.109 216.185 155.777 216.151 155.419L213.914 132.441H232.435L230.198 155.419C230.165 155.777 229.999 156.109 229.733 156.351C229.467 156.592 229.121 156.725 228.763 156.724Z" fill="#E6E6E6"/>
<path d="M232.406 135.332H213.943C213.561 135.331 213.194 135.179 212.924 134.908C212.653 134.637 212.501 134.269 212.501 133.886V130.417C212.501 130.034 212.653 129.666 212.924 129.395C213.194 129.125 213.561 128.972 213.943 128.972H232.406C232.788 128.972 233.155 129.125 233.425 129.395C233.695 129.666 233.848 130.034 233.848 130.417V133.886C233.848 134.269 233.695 134.637 233.425 134.908C233.155 135.179 232.788 135.331 232.406 135.332Z" fill="#CCCCCC"/>
<path d="M223.414 144.401C223.849 144.451 224.279 144.536 224.7 144.654L254.465 119.075L252.725 109.689L266.516 105.207L271.207 121.522C271.586 122.84 271.528 124.245 271.042 125.528C270.556 126.81 269.668 127.899 268.511 128.633L230.816 152.537C230.842 154.226 230.355 155.883 229.42 157.288C228.484 158.692 227.143 159.778 225.577 160.401C224.01 161.023 222.291 161.153 220.649 160.773C219.007 160.393 217.519 159.521 216.384 158.272C215.249 157.024 214.519 155.459 214.293 153.786C214.067 152.112 214.354 150.409 215.118 148.903C215.881 147.397 217.083 146.16 218.565 145.356C220.047 144.551 221.739 144.218 223.414 144.401V144.401Z" fill="#FFB8B8"/>
<path d="M254.542 75.5183C258.663 74.3624 262.78 77.5053 264.159 82.8598L270.78 108.555C271.276 110.481 270.312 112.528 268.807 112.745L251.17 115.287C249.813 115.483 248.617 114.088 248.568 112.251L247.883 86.9659C247.734 81.4747 250.547 76.639 254.542 75.5183Z" fill="#3F3D56"/>
<path d="M491.601 239.652C483.481 228.828 477.062 216.822 472.566 204.052C472.306 203.288 472.324 202.456 472.618 201.705C472.913 200.953 473.463 200.331 474.173 199.948L501.96 185.028C502.409 184.784 502.908 184.647 503.419 184.626C503.929 184.606 504.438 184.702 504.905 184.908C505.382 185.115 505.805 185.429 506.142 185.825C506.479 186.221 506.722 186.689 506.851 187.193C510.086 199.499 516.165 210.869 524.598 220.384C524.945 220.771 525.199 221.232 525.341 221.733C525.484 222.234 525.51 222.76 525.419 223.273C525.331 223.777 525.129 224.255 524.829 224.669C524.529 225.083 524.139 225.424 523.688 225.664L495.9 240.585C495.19 240.965 494.367 241.079 493.58 240.908C492.793 240.738 492.092 240.292 491.601 239.652Z" fill="#CCCCCC"/>
<path d="M493.497 238.224C493.647 238.411 493.857 238.54 494.091 238.588C494.325 238.637 494.569 238.602 494.78 238.49L522.567 223.569C522.702 223.498 522.819 223.397 522.908 223.274C522.998 223.151 523.058 223.008 523.083 222.858C523.112 222.699 523.104 222.536 523.059 222.381C523.015 222.226 522.935 222.083 522.826 221.964C514.145 212.169 507.886 200.464 504.557 187.796C504.518 187.639 504.444 187.494 504.34 187.371C504.236 187.248 504.105 187.15 503.958 187.087C503.818 187.024 503.667 186.995 503.514 187.001C503.362 187.008 503.213 187.049 503.08 187.123L475.293 202.043C475.082 202.157 474.918 202.342 474.829 202.564C474.739 202.786 474.73 203.033 474.803 203.261C479.218 215.803 485.522 227.594 493.497 238.224V238.224Z" fill="white"/>
<path d="M503.784 206.321L488.65 213.016C488.074 213.27 487.422 213.284 486.835 213.057C486.249 212.829 485.777 212.377 485.522 211.801L485.148 210.951C484.895 210.374 484.88 209.721 485.107 209.133C485.334 208.545 485.785 208.072 486.36 207.817L501.494 201.122C502.07 200.868 502.722 200.854 503.309 201.081C503.895 201.309 504.367 201.76 504.622 202.337L504.996 203.187C505.249 203.763 505.264 204.417 505.037 205.005C504.81 205.592 504.359 206.066 503.784 206.321Z" fill="#CCCCCC"/>
<path d="M509.318 216.621L494.184 223.316C493.609 223.57 492.956 223.584 492.37 223.357C491.783 223.129 491.311 222.677 491.057 222.101L490.682 221.251C490.429 220.675 490.414 220.021 490.642 219.433C490.869 218.845 491.319 218.372 491.894 218.117L507.028 211.422C507.604 211.168 508.257 211.154 508.843 211.381C509.429 211.609 509.902 212.061 510.156 212.637L510.53 213.487C510.784 214.063 510.798 214.717 510.571 215.305C510.344 215.893 509.894 216.366 509.318 216.621Z" fill="#CCCCCC"/>
<path d="M473.824 208.038C472.78 207.365 471.896 206.471 471.233 205.418C470.571 204.365 470.148 203.18 469.992 201.945C469.837 200.711 469.953 199.457 470.334 198.273C470.714 197.088 471.349 196.002 472.194 195.089L465.811 104.323L484.196 106.11L484.701 194.998C486.136 196.521 486.963 198.519 487.026 200.613C487.089 202.707 486.383 204.752 485.043 206.359C483.702 207.967 481.819 209.026 479.752 209.335C477.684 209.644 475.575 209.183 473.824 208.038L473.824 208.038Z" fill="#A0616A"/>
<path d="M469.973 134.822C469.542 134.512 469.187 134.109 468.933 133.642C468.678 133.176 468.532 132.658 468.503 132.128L467.156 107.664C467.023 105.24 467.79 102.853 469.309 100.962C470.828 99.0716 472.992 97.8115 475.383 97.425C477.775 97.0385 480.224 97.5529 482.259 98.869C484.295 100.185 485.772 102.21 486.405 104.553L492.323 126.425C492.569 127.337 492.443 128.31 491.974 129.13C491.505 129.95 490.73 130.55 489.82 130.799L472.987 135.372C472.476 135.512 471.939 135.536 471.418 135.44C470.896 135.345 470.402 135.134 469.973 134.822Z" fill="#3F3D56"/>
<path d="M438.639 319.627H428.946L424.335 282.16H438.64L438.639 319.627Z" fill="#A0616A"/>
<path d="M422.022 316.851H440.716V328.646H410.252C410.252 327.097 410.556 325.564 411.148 324.133C411.739 322.701 412.606 321.401 413.699 320.306C414.792 319.211 416.09 318.342 417.518 317.749C418.946 317.156 420.476 316.851 422.022 316.851Z" fill="#2F2E41"/>
<path d="M475.008 319.627H465.315L460.704 282.16H475.01L475.008 319.627Z" fill="#A0616A"/>
<path d="M458.391 316.851H477.085V328.646H446.621C446.621 327.097 446.926 325.564 447.517 324.133C448.109 322.701 448.976 321.401 450.069 320.306C451.162 319.211 452.459 318.342 453.887 317.749C455.315 317.156 456.846 316.851 458.391 316.851Z" fill="#2F2E41"/>
<path d="M438.181 300.752L427.51 300.242C426.601 300.199 425.743 299.808 425.113 299.15C424.483 298.493 424.128 297.618 424.121 296.706C421.308 253.193 417.412 206.535 423.377 188.51C423.373 187.996 423.481 187.488 423.691 187.02C423.902 186.551 424.211 186.134 424.597 185.797C424.984 185.459 425.438 185.21 425.93 185.064C426.421 184.919 426.939 184.882 427.446 184.956L470.135 191.166C470.979 191.284 471.751 191.704 472.311 192.347C472.871 192.99 473.18 193.815 473.182 194.668C478.632 216.01 478.879 254.711 478.672 294.923C478.676 295.394 478.587 295.86 478.409 296.296C478.232 296.732 477.971 297.128 477.64 297.462C477.309 297.796 476.916 298.061 476.482 298.242C476.049 298.423 475.584 298.516 475.115 298.516H463.611C462.762 298.519 461.94 298.217 461.295 297.664C460.65 297.112 460.225 296.345 460.096 295.504L452.999 250.289C452.895 249.627 452.556 249.026 452.044 248.595C451.532 248.165 450.882 247.934 450.214 247.947C449.546 247.959 448.905 248.213 448.409 248.662C447.913 249.112 447.596 249.725 447.517 250.39L441.883 297.614C441.777 298.479 441.359 299.276 440.709 299.854C440.058 300.433 439.22 300.754 438.35 300.757C438.294 300.757 438.237 300.755 438.181 300.752Z" fill="#2F2E41"/>
<path d="M445.693 194.673C436.285 189.434 428.933 188.058 425.389 187.704C424.918 187.658 424.461 187.517 424.046 187.289C423.631 187.061 423.267 186.751 422.975 186.378C422.677 186.002 422.458 185.57 422.331 185.106C422.204 184.643 422.173 184.159 422.239 183.683L432.468 107.581C433.057 103.128 434.772 98.9012 437.452 95.3013C440.132 91.7015 443.686 88.8487 447.777 87.0144C451.737 85.1902 456.097 84.4117 460.442 84.753C464.786 85.0943 468.972 86.544 472.6 88.9642C472.95 89.1979 473.294 89.4365 473.632 89.6799C477.809 92.7475 480.987 96.9858 482.765 101.861C484.543 106.735 484.842 112.029 483.622 117.073C477.35 142.788 475.195 184.944 474.827 193.135C474.798 193.833 474.563 194.507 474.153 195.071C473.742 195.636 473.174 196.066 472.52 196.308C468.661 197.713 464.588 198.44 460.482 198.456C455.31 198.487 450.217 197.184 445.693 194.673Z" fill="#3F3D56"/>
<path d="M454.249 76.6811C464.973 76.6811 473.668 67.9685 473.668 57.2209C473.668 46.4734 464.973 37.7608 454.249 37.7608C443.524 37.7608 434.83 46.4734 434.83 57.2209C434.83 67.9685 443.524 76.6811 454.249 76.6811Z" fill="#A0616A"/>
<path d="M467.99 72.6169C464.368 76.484 457.64 74.4081 457.168 69.125C457.131 68.7149 457.134 68.3021 457.176 67.8924C457.42 65.5523 458.769 63.4277 458.446 60.9568C458.372 60.3419 458.144 59.7558 457.781 59.2542C454.895 55.3803 448.118 60.9869 445.393 57.48C443.723 55.3296 445.687 51.9439 444.405 49.5405C442.713 46.3684 437.701 47.9332 434.558 46.196C431.061 44.2632 431.271 38.8867 433.572 35.6165C436.38 31.6283 441.301 29.5002 446.162 29.1935C451.023 28.8868 455.85 30.2035 460.387 31.9757C465.543 33.9892 470.656 36.772 473.829 41.3151C477.687 46.8401 478.058 54.2679 476.129 60.7283C474.955 64.6582 470.949 69.459 467.99 72.6169Z" fill="#2F2E41"/>
<path d="M483.369 91.5364C483.029 89.9359 480.111 87.7491 475.937 85.9664C469.227 83.2428 461.969 82.1462 454.756 82.7658C447.543 83.3853 440.578 85.7036 434.428 89.5318C433.999 89.5549 433.59 89.7187 433.263 89.9978C432.935 90.2769 432.709 90.6561 432.618 91.0768L418.576 153.313L416.749 161.419L415.54 166.783L413.713 174.864L412.741 179.182C412.679 179.459 412.676 179.745 412.733 180.022C412.79 180.299 412.906 180.561 413.072 180.79C413.238 181.018 413.451 181.209 413.697 181.349C413.943 181.488 414.215 181.574 414.496 181.599L475.13 186.844C475.186 186.844 475.249 186.852 475.304 186.852C475.804 186.849 476.285 186.656 476.649 186.312C477.013 185.968 477.233 185.498 477.265 184.998L477.842 176.195L478.459 166.783L478.728 162.702L479.336 153.313L483.376 91.6394V91.5839L483.369 91.5364Z" fill="#0D0C23"/>
<path d="M383.879 95.4539C383.976 95.8814 384.039 96.3159 384.068 96.7534L418.032 116.389L426.287 111.626L435.088 123.172L417.427 135.786L378.68 105.153C377.1 105.739 375.379 105.829 373.746 105.411C372.113 104.993 370.646 104.087 369.54 102.813C368.434 101.539 367.741 99.958 367.553 98.2799C367.366 96.6017 367.692 94.9061 368.49 93.4185C369.287 91.9309 370.517 90.7218 372.017 89.952C373.517 89.1823 375.215 88.8883 376.886 89.1093C378.556 89.3302 380.12 90.0556 381.37 91.189C382.619 92.3223 383.494 93.8099 383.879 95.4539H383.879Z" fill="#A0616A"/>
<path d="M419.245 114.719C419.188 114.191 419.251 113.656 419.428 113.155C419.605 112.654 419.892 112.199 420.267 111.824L437.553 94.4975C439.266 92.781 441.552 91.7607 443.971 91.6334C446.39 91.506 448.77 92.2807 450.653 93.8079C452.536 95.3352 453.788 97.5069 454.167 99.9043C454.547 102.302 454.027 104.755 452.708 106.791L440.398 125.801C439.884 126.593 439.077 127.149 438.154 127.345C437.232 127.542 436.269 127.364 435.477 126.851L420.847 117.336C420.401 117.048 420.026 116.663 419.749 116.21C419.472 115.757 419.3 115.247 419.245 114.719Z" fill="#3F3D56"/>
<path d="M479.336 153.313L478.727 162.702L416.749 161.419L418.575 153.313H479.336Z" fill="#CCCCCC"/>
<path d="M478.459 166.783L477.842 176.195L413.713 174.864L415.54 166.783H478.459Z" fill="#CCCCCC"/>
<path d="M454.629 19.4118C448.057 19.4125 441.743 21.9766 437.024 26.5611C432.306 31.1456 429.553 37.3906 429.349 43.9736H424.585C424.165 43.9736 423.763 44.1406 423.467 44.4377C423.17 44.7349 423.003 45.138 423.003 45.5582V51.8968C423.003 52.317 423.17 52.7201 423.467 53.0172C423.763 53.3144 424.165 53.4814 424.585 53.4814H478.348C478.767 53.4814 479.17 53.3144 479.466 53.0172C479.763 52.7201 479.929 52.317 479.929 51.8968V44.7659C479.929 41.4363 479.275 38.1393 478.003 35.0632C476.732 31.9871 474.868 29.1921 472.519 26.8378C470.17 24.4834 467.381 22.6158 464.311 21.3417C461.241 20.0675 457.951 19.4117 454.629 19.4118Z" fill="#0D0C23"/>
<path d="M100.658 271.809C95.6546 273.572 90.2821 274.013 85.0585 273.091C79.8349 272.169 74.9364 269.915 70.8347 266.544C60.3888 257.758 57.1137 243.283 54.4489 229.88L46.5668 190.236L63.0687 201.623C74.9359 209.811 87.0704 218.262 95.2872 230.123C103.504 241.984 107.091 258.175 100.489 271.009" fill="#E6E6E6"/>
<path d="M99.2479 319.807C100.918 307.615 102.636 295.267 101.464 282.944C100.423 272 97.0918 261.312 90.309 252.547C86.7086 247.904 82.3277 243.926 77.3632 240.791C76.0686 239.973 74.8771 242.029 76.1661 242.844C84.7561 248.284 91.4003 256.318 95.1405 265.787C99.2715 276.316 99.9348 287.794 99.223 298.979C98.7925 305.744 97.8801 312.463 96.9607 319.175C96.8882 319.478 96.9334 319.798 97.0872 320.069C97.2409 320.341 97.4918 320.544 97.789 320.637C98.0922 320.719 98.4155 320.677 98.6886 320.522C98.9617 320.367 99.1627 320.109 99.2479 319.807Z" fill="#F2F2F2"/>
<path d="M83.1607 298.233C81.0146 301.502 78.0647 304.161 74.5951 305.956C71.1256 307.75 67.2534 308.619 63.3515 308.479C53.3237 308.002 44.9637 300.988 37.4382 294.329L15.1791 274.635L29.9109 273.928C40.5052 273.42 51.3727 272.946 61.4634 276.22C71.554 279.494 80.8602 287.374 82.7053 297.84" fill="#E6E6E6"/>
<path d="M103.968 326.815C95.929 312.56 86.6045 296.718 69.9431 291.654C65.3105 290.251 60.4528 289.749 55.6318 290.174C54.1123 290.305 54.4917 292.652 56.0084 292.521C64.0896 291.849 72.1551 293.987 78.8472 298.576C85.2868 302.969 90.3008 309.076 94.5446 315.552C97.144 319.519 99.4725 323.654 101.801 327.783C102.546 329.103 104.721 328.15 103.968 326.815Z" fill="#F2F2F2"/>
<path d="M561.209 330H-1.72456C-1.93425 330 -2.13534 329.917 -2.28361 329.768C-2.43189 329.619 -2.5152 329.418 -2.5152 329.208C-2.5152 328.998 -2.43189 328.796 -2.28361 328.647C-2.13534 328.499 -1.93425 328.415 -1.72456 328.415H561.209C561.419 328.415 561.62 328.499 561.768 328.647C561.917 328.796 562 328.998 562 329.208C562 329.418 561.917 329.619 561.768 329.768C561.62 329.917 561.419 330 561.209 330Z" fill="#CCCCCC"/>
</g>
<defs>
<clipPath id="clip0">
<rect width="588" height="330" fill="white" transform="translate(-26)"/>
</clipPath>
</defs>
</svg>
