<svg width="100" height="100" viewBox="0 0 100 100" fill="none" xmlns="http://www.w3.org/2000/svg">
<path d="M95.3125 31.25H84.2027C83.84 29.3289 82.904 27.5626 81.5182 26.1836C80.6497 25.3103 79.6166 24.6179 78.4787 24.1465C77.3408 23.6751 76.1207 23.4342 74.8891 23.4375H71.875C69.6605 23.4406 67.5183 24.2263 65.8271 25.6559C64.1358 27.0855 63.0043 29.0669 62.6326 31.25H59.375C59.375 30.0068 58.8811 28.8145 58.0021 27.9355C57.123 27.0564 55.9307 26.5625 54.6875 26.5625C53.4443 26.5625 52.252 27.0564 51.3729 27.9355C50.4939 28.8145 50 30.0068 50 31.25H45.5848C44.6146 28.782 42.8756 26.6919 40.625 25.2893V20.3125C40.625 19.8981 40.4604 19.5007 40.1674 19.2077C39.8743 18.9146 39.4769 18.75 39.0625 18.75V15.625H44.5326C45.4061 15.9895 46.3641 16.1026 47.2985 15.9515C48.2329 15.8005 49.1065 15.3913 49.8206 14.7701C50.5348 14.149 51.0612 13.3406 51.3403 12.4362C51.6195 11.5318 51.6403 10.5673 51.4005 9.6517C51.1606 8.73608 50.6696 7.90572 49.9829 7.25431C49.2962 6.6029 48.4412 6.15638 47.5142 5.96512C46.5872 5.77387 45.6252 5.8455 44.7368 6.17193C43.8483 6.49836 43.0688 7.0666 42.4861 7.81253H39.0414C38.583 7.0941 37.9509 6.50276 37.2036 6.09312C36.4563 5.68348 35.6178 5.46875 34.7656 5.46875C33.9134 5.46875 33.0749 5.68348 32.3276 6.09312C31.5803 6.50276 30.9483 7.0941 30.4898 7.81253H27.0451C26.4624 7.06728 25.6831 6.49968 24.795 6.17375C23.907 5.84782 22.9455 5.77652 22.0191 5.9679C21.0926 6.15927 20.2381 6.60571 19.5519 7.25685C18.8656 7.908 18.375 8.73794 18.1353 9.65306C17.8956 10.5682 17.9164 11.5321 18.1953 12.436C18.4742 13.34 19.0002 14.148 19.7138 14.7689C20.4275 15.3899 21.3005 15.7991 22.2343 15.9503C23.1681 16.1016 24.1256 15.9889 24.9988 15.625H29.6875V18.75C29.2731 18.75 28.8757 18.9146 28.5826 19.2077C28.2896 19.5007 28.125 19.8981 28.125 20.3125V25.0248C25.6628 26.4191 23.7543 28.6167 22.7189 31.25H18.75C18.75 30.0068 18.2561 28.8145 17.3771 27.9355C16.498 27.0564 15.3057 26.5625 14.0625 26.5625C12.8193 26.5625 11.627 27.0564 10.7479 27.9355C9.86886 28.8145 9.375 30.0068 9.375 31.25H4.6875C4.2731 31.25 3.87567 31.4146 3.58265 31.7077C3.28962 32.0007 3.125 32.3981 3.125 32.8125V42.1875C3.125 42.6019 3.28962 42.9994 3.58265 43.2924C3.87567 43.5854 4.2731 43.75 4.6875 43.75H9.375C9.375 44.9932 9.86886 46.1855 10.7479 47.0646C11.627 47.9437 12.8193 48.4375 14.0625 48.4375C15.3057 48.4375 16.498 47.9437 17.3771 47.0646C18.2561 46.1855 18.75 44.9932 18.75 43.75H22.7189C23.6168 46.0517 25.1884 48.0289 27.2283 49.4228C29.2681 50.8166 31.6812 51.5624 34.1519 51.5624C36.6225 51.5624 39.0356 50.8166 41.0754 49.4228C43.1153 48.0289 44.687 46.0517 45.5848 43.75H50C50 44.9932 50.4939 46.1855 51.3729 47.0646C52.252 47.9437 53.4443 48.4375 54.6875 48.4375C55.9307 48.4375 57.123 47.9437 58.0021 47.0646C58.8811 46.1855 59.375 44.9932 59.375 43.75H60.9375V48.4375C60.9375 48.8519 61.1021 49.2494 61.3951 49.5424C61.6882 49.8354 62.0856 50 62.5 50V90.535C62.4957 92.1977 63.1448 93.7956 64.3073 94.9843C65.4699 96.1731 67.053 96.8575 68.7154 96.8902C70.3778 96.9229 71.9865 96.3012 73.1949 95.1591C74.4034 94.0169 75.1147 92.4458 75.1758 90.7842L76.5164 58.9543L84.8691 56.1699C85.1803 56.0662 85.4509 55.8672 85.6426 55.6012C85.8344 55.3351 85.9375 55.0155 85.9375 54.6875V45.3125C85.9375 44.973 85.827 44.6428 85.6226 44.3717C85.4182 44.1007 85.1311 43.9035 84.8047 43.8102L84.5939 43.75H95.3125C95.7269 43.75 96.1243 43.5854 96.4174 43.2924C96.7104 42.9994 96.875 42.6019 96.875 42.1875V32.8125C96.875 32.3981 96.7104 32.0007 96.4174 31.7077C96.1243 31.4146 95.7269 31.25 95.3125 31.25ZM71.875 26.5625H74.8891C75.7102 26.5603 76.5235 26.7209 77.2821 27.0351C78.0407 27.3494 78.7294 27.811 79.3084 28.3932C79.9259 29.0073 80.4155 29.7378 80.7488 30.5424C81.082 31.3471 81.2524 32.2098 81.25 33.0807V42.7946L78.125 41.9018V32.8125C78.125 32.3981 77.9604 32.0007 77.6674 31.7077C77.3743 31.4146 76.9769 31.25 76.5625 31.25H65.8227C66.1708 29.9093 66.9538 28.7218 68.049 27.8736C69.1442 27.0254 70.4898 26.5643 71.875 26.5625ZM64.0625 46.875V43.75H71.875V46.875H64.0625ZM46.4844 8.9844C46.8707 8.9844 47.2483 9.09895 47.5695 9.31356C47.8907 9.52817 48.141 9.83321 48.2888 10.1901C48.4367 10.547 48.4753 10.9397 48.4 11.3186C48.3246 11.6974 48.1386 12.0454 47.8654 12.3186C47.5923 12.5917 47.2443 12.7778 46.8654 12.8531C46.4865 12.9285 46.0938 12.8898 45.7369 12.742C45.3801 12.5941 45.075 12.3438 44.8604 12.0226C44.6458 11.7014 44.5312 11.3238 44.5312 10.9375C44.5318 10.4197 44.7378 9.92324 45.1039 9.55709C45.4701 9.19093 45.9665 8.98497 46.4844 8.9844ZM41.6533 12.5H39.4531C39.6608 12.0026 39.7874 11.4751 39.8279 10.9375H41.4062C41.4061 11.4681 41.4895 11.9954 41.6533 12.5ZM34.7656 8.59378C35.1519 8.59378 35.5295 8.70832 35.8507 8.92294C36.1719 9.13755 36.4223 9.44258 36.5701 9.79947C36.7179 10.1564 36.7566 10.5491 36.6812 10.9279C36.6059 11.3068 36.4198 11.6548 36.1467 11.928C35.8735 12.2011 35.5255 12.3871 35.1467 12.4625C34.7678 12.5379 34.3751 12.4992 34.0182 12.3514C33.6613 12.2035 33.3563 11.9532 33.1417 11.632C32.927 11.3108 32.8125 10.9332 32.8125 10.5469C32.8131 10.0291 33.019 9.53262 33.3852 9.16646C33.7513 8.8003 34.2478 8.59434 34.7656 8.59378ZM29.7039 10.9375C29.7443 11.475 29.8706 12.0026 30.0781 12.5H27.8779C28.0418 11.9954 28.1252 11.4681 28.125 10.9375H29.7039ZM21.0938 10.9375C21.0938 10.5512 21.2083 10.1736 21.4229 9.85243C21.6375 9.53124 21.9426 9.2809 22.2994 9.13307C22.6563 8.98525 23.049 8.94657 23.4279 9.02193C23.8068 9.09729 24.1548 9.28331 24.4279 9.55646C24.7011 9.82961 24.8871 10.1776 24.9625 10.5565C25.0378 10.9354 24.9992 11.3281 24.8513 11.685C24.7035 12.0418 24.4532 12.3469 24.132 12.5615C23.8108 12.7761 23.4332 12.8906 23.0469 12.8906C22.529 12.8901 22.0326 12.6841 21.6664 12.318C21.3003 11.9518 21.0943 11.4554 21.0938 10.9375ZM32.8125 15.625H35.9375V18.75H32.8125V15.625ZM31.25 21.875H37.5V23.9063C35.4622 23.3254 33.3083 23.2846 31.25 23.7879V21.875ZM6.25 40.625V34.375H9.375V40.625H6.25ZM15.625 43.75C15.625 44.1644 15.4604 44.5619 15.1674 44.8549C14.8743 45.1479 14.4769 45.3125 14.0625 45.3125C13.6481 45.3125 13.2507 45.1479 12.9576 44.8549C12.6646 44.5619 12.5 44.1644 12.5 43.75V31.25C12.5 30.8356 12.6646 30.4382 12.9576 30.1452C13.2507 29.8521 13.6481 29.6875 14.0625 29.6875C14.4769 29.6875 14.8743 29.8521 15.1674 30.1452C15.4604 30.4382 15.625 30.8356 15.625 31.25V43.75ZM18.75 40.625V34.375H21.9494C21.9003 34.8198 21.8755 35.2668 21.875 35.7143V39.2858C21.8755 39.7332 21.9003 40.1803 21.9494 40.625H18.75ZM34.1518 48.4375C31.7254 48.4347 29.3993 47.4696 27.6836 45.754C25.9679 44.0383 25.0028 41.7121 25 39.2858V35.7143C25 33.2871 25.9642 30.9593 27.6805 29.243C29.3968 27.5267 31.7246 26.5625 34.1518 26.5625C36.579 26.5625 38.9067 27.5267 40.623 29.243C42.3393 30.9593 43.3035 33.2871 43.3035 35.7143V39.2858C43.3007 41.7121 42.3356 44.0383 40.6199 45.754C38.9043 47.4696 36.5781 48.4347 34.1518 48.4375ZM46.3541 40.625C46.4032 40.1803 46.428 39.7332 46.4285 39.2858V35.7143C46.428 35.2668 46.4032 34.8198 46.3541 34.375H50V40.625H46.3541ZM56.25 43.75C56.25 44.1644 56.0854 44.5619 55.7924 44.8549C55.4993 45.1479 55.1019 45.3125 54.6875 45.3125C54.2731 45.3125 53.8757 45.1479 53.5826 44.8549C53.2896 44.5619 53.125 44.1644 53.125 43.75V31.25C53.125 30.8356 53.2896 30.4382 53.5826 30.1452C53.8757 29.8521 54.2731 29.6875 54.6875 29.6875C55.1019 29.6875 55.4993 29.8521 55.7924 30.1452C56.0854 30.4382 56.25 30.8356 56.25 31.25V43.75ZM59.375 34.375H75V41.0088C75 41.0088 73.5006 40.6278 73.4785 40.6272C73.4646 40.6272 59.375 40.625 59.375 40.625V34.375ZM82.8125 53.5614L74.5059 56.3301C74.2054 56.4303 73.9425 56.6194 73.7519 56.8724C73.5614 57.1253 73.4522 57.4303 73.4389 57.7467L72.0522 90.6584C72.0145 91.496 71.6511 92.2856 71.0396 92.8591C70.428 93.4326 69.6167 93.7446 68.7784 93.7285C67.9402 93.7124 67.1414 93.3695 66.5523 92.773C65.9633 92.1764 65.6305 91.3734 65.625 90.535V50H73.4375C73.8519 50 74.2493 49.8354 74.5424 49.5424C74.8354 49.2494 75 48.8519 75 48.4375V44.2578L82.8125 46.4901V53.5614ZM93.75 40.625H84.375V34.375H93.75V40.625Z" fill="#0D0C23"/>
<path d="M39.0625 37.5C38.6481 37.5 38.2507 37.6646 37.9576 37.9576C37.6646 38.2507 37.5 38.6481 37.5 39.0625V39.4531C37.4992 40.1781 37.2109 40.8731 36.6983 41.3858C36.1856 41.8984 35.4906 42.1867 34.7656 42.1875H34.375C33.9606 42.1875 33.5632 42.3521 33.2701 42.6451C32.9771 42.9382 32.8125 43.3356 32.8125 43.75C32.8125 44.1644 32.9771 44.5618 33.2701 44.8549C33.5632 45.1479 33.9606 45.3125 34.375 45.3125H34.7656C36.3191 45.3107 37.8084 44.6929 38.9069 43.5944C40.0054 42.4959 40.6232 41.0066 40.625 39.4531V39.0625C40.625 38.6481 40.4604 38.2507 40.1674 37.9576C39.8743 37.6646 39.4769 37.5 39.0625 37.5Z" fill="#0D0C23"/>
</svg>
